name C:\Users\r0593348\3dpredictsim\Results\Batchsim_tmt_linear_v2\Pog_s1_tmt_aCst_d02_k250_ig24_pas.mot
datacolumns 128
datarows 4
range 1.65797989 1.69113949
endheader
time	pelvis_tilt	pelvis_list	pelvis_rotation	pelvis_tx	pelvis_ty	pelvis_tz	hip_flexion_l	hip_adduction_l	hip_rotation_l	hip_flexion_r	hip_adduction_r	hip_rotation_r	knee_angle_l	knee_angle_r	ankle_angle_l	ankle_angle_r	subtalar_angle_l	subtalar_angle_r	tmt_angle_l	tmt_angle_r	mtp_angle_l	mtp_angle_r	lumbar_extension	lumbar_bending	lumbar_rotation	arm_flex_l	arm_add_l	arm_rot_l	arm_flex_r	arm_add_r	arm_rot_r	elbow_flex_l	elbow_flex_r	pro_sup_l	pro_sup_r	glut_med1_l/activation	glut_med2_l/activation	glut_med3_l/activation	glut_min1_l/activation	glut_min2_l/activation	glut_min3_l/activation	semimem_l/activation	semiten_l/activation	bifemlh_l/activation	bifemsh_l/activation	sar_l/activation	add_long_l/activation	add_brev_l/activation	add_mag1_l/activation	add_mag2_l/activation	add_mag3_l/activation	tfl_l/activation	pect_l/activation	grac_l/activation	glut_max1_l/activation	glut_max2_l/activation	glut_max3_l/activation	iliacus_l/activation	psoas_l/activation	quad_fem_l/activation	gem_l/activation	peri_l/activation	rect_fem_l/activation	vas_med_l/activation	vas_int_l/activation	vas_lat_l/activation	med_gas_l/activation	lat_gas_l/activation	soleus_l/activation	tib_post_l/activation	flex_dig_l/activation	flex_hal_l/activation	tib_ant_l/activation	per_brev_l/activation	per_long_l/activation	per_tert_l/activation	ext_dig_l/activation	ext_hal_l/activation	ercspn_l/activation	intobl_l/activation	extobl_l/activation	glut_med1_r/activation	glut_med2_r/activation	glut_med3_r/activation	glut_min1_r/activation	glut_min2_r/activation	glut_min3_r/activation	semimem_r/activation	semiten_r/activation	bifemlh_r/activation	bifemsh_r/activation	sar_r/activation	add_long_r/activation	add_brev_r/activation	add_mag1_r/activation	add_mag2_r/activation	add_mag3_r/activation	tfl_r/activation	pect_r/activation	grac_r/activation	glut_max1_r/activation	glut_max2_r/activation	glut_max3_r/activation	iliacus_r/activation	psoas_r/activation	quad_fem_r/activation	gem_r/activation	peri_r/activation	rect_fem_r/activation	vas_med_r/activation	vas_int_r/activation	vas_lat_r/activation	med_gas_r/activation	lat_gas_r/activation	soleus_r/activation	tib_post_r/activation	flex_dig_r/activation	flex_hal_r/activation	tib_ant_r/activation	per_brev_r/activation	per_long_r/activation	per_tert_r/activation	ext_dig_r/activation	ext_hal_r/activation	ercspn_r/activation	intobl_r/activation	extobl_r/activation	
          1.65797989	         -2.89709407	         -1.00974949	         -5.47847172	          2.07247486	          0.86906361	          0.00373139	         27.31050179	         -0.41235618	         -2.28326920	        -17.25401176	          1.36851205	          7.56013692	         -8.29799106	         -8.83455463	          5.99782362	        -10.28562633	          3.49062992	         10.14139139	          0.14628793	          4.05284775	         -0.07388324	         26.88078963	          0.27369323	          2.82940961	          1.65091234	        -11.08243685	        -13.45888545	          9.19223057	          2.71499527	        -13.50249413	         11.20014717	         19.44908791	         32.75213811	         86.51662706	         86.51662706	          0.06969401	          0.05005065	          0.10087169	          0.05000419	          0.05000652	          0.05013130	          0.06066341	          0.05921273	          0.09724841	          0.05921080	          0.05002001	          0.06029236	          0.09180155	          0.11805187	          0.18196262	          0.15249300	          0.05000223	          0.05005201	          0.06736632	          0.07011884	          0.14488362	          0.15819200	          0.05000102	          0.05000070	          0.10201306	          0.05000964	          0.05008737	          0.05000037	          0.05001262	          0.09178777	          0.05000540	          0.05921100	          0.05921099	          0.05921100	          0.05921018	          0.05921185	          0.05921150	          0.48390010	          0.31225576	          0.19100036	          0.21523955	          0.49963052	          0.24925489	          0.05000028	          0.11752689	          0.11171757	          0.26245934	          0.08303895	          0.05000042	          0.22908976	          0.15144046	          0.08303651	          0.05000511	          0.05000060	          0.05000049	          0.05000083	          0.07013520	          0.15127180	          0.05002967	          0.05000655	          0.05000876	          0.05000154	          0.22125508	          0.11144483	          0.05000682	          0.05000411	          0.05000203	          0.05000206	          0.29515272	          0.55441464	          0.05000049	          0.05000123	          0.05000044	          0.22901521	          0.10204702	          0.13789307	          0.12513504	          0.16918495	          0.24620174	          0.21527604	          0.19100664	          0.21227462	          0.25124245	          0.05000005	          0.11113899	          0.15371635	          0.05000052	          0.05000010	          0.05000033	          0.05000022	          0.05000017	          0.05606958	
          1.66903309	         -2.86928367	         -1.02248132	         -5.59132818	          2.09029061	          0.86777043	          0.00354071	         26.78523231	         -0.14837911	         -2.07475166	        -16.85866435	          1.22226469	          7.29727775	         -8.59318125	        -11.35837776	          5.20318605	        -10.97501680	          3.02903823	         11.37495771	          0.12756028	          3.49061434	         -0.06128490	         27.50037207	          0.53129022	          2.59269966	          1.71177949	        -12.35652066	        -13.45823095	          8.92867762	          2.35041032	        -13.54685646	         11.50265690	         19.50503551	         33.69316840	         86.51662706	         86.51662706	          0.05885264	          0.05000146	          0.08518243	          0.05000105	          0.05000096	          0.05000092	          0.05122651	          0.05000161	          0.08212029	          0.05000027	          0.05000071	          0.08303795	          0.13326099	          0.27108519	          0.25526809	          0.15546349	          0.05000251	          0.07948540	          0.05688808	          0.05921386	          0.16499592	          0.19047177	          0.05000058	          0.05000121	          0.31060684	          0.07013844	          0.10173242	          0.07377371	          0.31668944	          0.34231088	          0.25937612	          0.05000003	          0.05000007	          0.05000001	          0.05000012	          0.05000133	          0.05000080	          0.63157120	          0.29113265	          0.16201336	          0.54816027	          0.58924743	          0.34479492	          0.05000005	          0.09924415	          0.09433855	          0.22163068	          0.07012134	          0.05149484	          0.19345226	          0.12788223	          0.07011944	          0.06259737	          0.05000030	          0.05000046	          0.05000023	          0.05922513	          0.20737929	          0.29107522	          0.22893376	          0.06866003	          0.12556371	          0.18683634	          0.09411082	          0.05000096	          0.05007688	          0.05014362	          0.07007794	          0.24923816	          0.46816918	          0.07011356	          0.06917087	          0.05921139	          0.19338911	          0.11644582	          0.11644722	          0.10567312	          0.14286617	          0.20790209	          0.18178723	          0.16129333	          0.17925326	          0.21215888	          0.05000029	          0.09385011	          0.12980399	          0.05000031	          0.10961990	          0.05000147	          0.05909823	          0.08303634	          0.07502468	
          1.68008629	         -2.83548932	         -1.01130388	         -5.67835489	          2.10824091	          0.86618908	          0.00336602	         26.12512530	          0.06839760	         -1.80921193	        -16.35984104	          1.07422960	          7.01701291	         -9.31205967	        -14.07353828	          4.46140414	        -11.47867170	          2.54698929	         12.53174899	         -0.07680693	          2.77480067	         -0.13011632	         27.46789185	          0.79384448	          2.32152877	          1.76066350	        -13.59660608	        -13.47718567	          8.78287946	          1.94198197	        -13.59657992	         11.76206330	         19.50127863	         34.62576522	         86.51662706	         86.51662706	          0.28339300	          0.25564093	          0.26796818	          0.05001484	          0.05000909	          0.17626571	          0.08191992	          0.05000227	          0.09522679	          0.05000040	          0.05000499	          0.07012067	          0.11253085	          0.22891493	          0.21556018	          0.17366729	          0.05000122	          0.06857340	          0.05000173	          0.05000363	          0.18486015	          0.16908969	          0.05000169	          0.05000103	          0.26228827	          0.05922811	          0.11681125	          0.06229732	          0.26742462	          0.28906033	          0.21902708	          0.05921104	          0.05921111	          0.05921099	          0.05000184	          0.05921133	          0.05921120	          0.53332264	          0.34529819	          0.17499433	          0.46288744	          0.60791611	          0.29115819	          0.05000007	          0.08380555	          0.07966305	          0.18715560	          0.05921322	          0.05000071	          0.16335869	          0.10798880	          0.05921181	          0.08840368	          0.05005273	          0.05921109	          0.05000027	          0.05001242	          0.18200938	          0.42143032	          0.19332194	          0.05927845	          0.10603208	          0.15777199	          0.08618576	          0.05923320	          0.05004508	          0.05059471	          0.05921117	          0.21046619	          0.41512173	          0.05921102	          0.05841194	          0.05000086	          0.16330507	          0.09833131	          0.09833249	          0.08923443	          0.12064161	          0.17556045	          0.15350801	          0.13620226	          0.15136867	          0.17915521	          0.07865475	          0.08955747	          0.13790053	          0.07809098	          0.19754982	          0.10212447	          0.06898059	          0.07011903	          0.06335377	
          1.69113949	         -2.79908595	         -0.98713492	         -5.73956884	          2.12609468	          0.86436362	          0.00318632	         25.32478276	          0.26452049	         -1.51280784	        -15.75786478	          0.93084018	          6.73063995	        -10.00232249	        -16.93225703	          3.89354014	        -11.72547472	          2.02420660	         13.57890313	         -0.02810116	          1.94858296	         -0.19344580	         26.48625350	          1.04116009	          2.03285665	          1.79943976	        -14.75342885	        -13.51053181	          8.76858307	          1.53326796	        -13.65462324	         12.00159298	         19.40941019	         35.52164261	         86.51662706	         86.51662706	          0.34783321	          0.41512846	          0.49848326	          0.22303384	          0.23017638	          0.41790784	          0.06917642	          0.08584749	          0.08041327	          0.07013172	          0.05000746	          0.05921274	          0.09502544	          0.19330476	          0.18202916	          0.17905561	          0.05000097	          0.05795270	          0.07802082	          0.25752422	          0.23658163	          0.19558925	          0.05000086	          0.05000059	          0.22148633	          0.05001714	          0.30120607	          0.05260625	          0.22582363	          0.24409373	          0.18495488	          0.05000010	          0.05000020	          0.05000002	          0.05000003	          0.05000052	          0.05000036	          0.70543303	          0.29158308	          0.14777195	          0.69075950	          0.65142269	          0.46033919	          0.06847460	          0.07076862	          0.06727051	          0.15804173	          0.05000209	          0.05000017	          0.20939424	          0.09119034	          0.05000195	          0.11707286	          0.05000096	          0.05000109	          0.05015875	          0.06328091	          0.15990684	          0.35587187	          0.16324872	          0.05005783	          0.08953789	          0.13322918	          0.07277968	          0.05002050	          0.05000221	          0.05000111	          0.05000134	          0.17772576	          0.37071152	          0.05000033	          0.05000091	          0.05000062	          0.13790098	          0.08303473	          0.08303572	          0.07535297	          0.10187435	          0.14824993	          0.12962796	          0.11501443	          0.12782187	          0.15128564	          0.11408802	          0.10745558	          0.11644855	          0.06595052	          0.28119749	          0.20903180	          0.10215350	          0.05921116	          0.05349836	
